<?xml version="1.0" standalone="no"?>
<!DOCTYPE svg PUBLIC "-//W3C//DTD SVG 20010904//EN"
 "http://www.w3.org/TR/2001/REC-SVG-20010904/DTD/svg10.dtd">
<svg version="1.0" xmlns="http://www.w3.org/2000/svg"
 width="718.000000pt" height="535.000000pt" viewBox="0 0 718.000000 535.000000"
 preserveAspectRatio="xMidYMid meet">

<g transform="translate(0.000000,535.000000) scale(0.100000,-0.100000)"
fill="#000000" stroke="none">
<path d="M0 2675 l0 -2675 3590 0 3590 0 0 2675 0 2675 -3590 0 -3590 0 0
-2675z m3636 2572 c28 -34 66 -84 85 -111 19 -27 45 -65 59 -84 14 -19 57 -54
95 -77 63 -38 73 -48 105 -111 41 -80 93 -122 161 -131 55 -7 89 -24 140 -70
65 -58 79 -97 79 -209 0 -148 -60 -334 -154 -483 -32 -50 -132 -151 -194 -196
-23 -16 -63 -56 -89 -89 -51 -62 -155 -130 -262 -173 -62 -24 -57 -31 7 -9 87
31 201 106 249 165 27 32 80 82 118 111 197 147 335 425 335 674 0 111 -10
137 -74 204 -49 52 -95 77 -156 87 -72 11 -116 46 -149 118 -28 64 -49 85
-138 137 -28 17 -65 57 -114 125 -40 55 -88 118 -108 140 l-36 40 135 3 c127
3 136 2 150 -18 8 -11 27 -34 43 -51 15 -17 27 -35 27 -39 0 -4 -20 -29 -45
-56 -25 -26 -45 -51 -45 -56 0 -18 19 -6 64 42 28 30 52 47 59 43 59 -35 207
-175 207 -196 0 -6 -28 -37 -62 -68 -34 -32 -59 -61 -55 -65 4 -4 15 0 25 9
13 12 21 14 29 6 7 -7 20 7 44 46 18 30 37 55 42 55 14 0 175 -89 249 -137
146 -96 182 -165 213 -404 23 -174 9 -272 -62 -429 -22 -48 -128 -226 -143
-240 -14 -14 -70 -102 -115 -183 -27 -50 -54 -92 -60 -93 -5 -2 -28 23 -50 56
-22 33 -46 60 -53 60 -8 0 5 -27 32 -65 25 -36 46 -69 46 -72 0 -3 -23 17 -51
46 -49 49 -69 62 -69 41 0 -5 3 -10 8 -10 16 0 104 -112 95 -121 -5 -5 -84
-14 -174 -19 -107 -7 -212 -20 -302 -38 -114 -24 -139 -27 -148 -15 -17 19
-31 16 -20 -5 8 -15 2 -22 -35 -41 l-44 -24 -19 22 c-22 25 -31 27 -31 6 0 -9
7 -18 15 -21 23 -9 18 -20 -21 -56 -20 -18 -81 -88 -134 -154 -111 -138 -150
-176 -293 -286 -111 -85 -116 -89 -197 -158 -73 -62 -156 -117 -260 -169 -47
-24 -89 -47 -95 -51 -5 -4 -37 -17 -70 -30 -85 -31 -267 -38 -418 -16 -62 8
-138 18 -169 22 -61 6 -69 12 -86 63 -10 28 -8 46 14 120 33 107 39 141 27
141 -6 0 -20 -36 -33 -80 -12 -44 -26 -77 -30 -75 -4 3 -13 47 -20 100 -7 52
-16 95 -21 95 -12 0 -11 -45 1 -110 8 -41 7 -56 -2 -61 -10 -7 -10 -11 0 -21
6 -6 12 -16 12 -21 0 -5 -27 19 -59 54 -33 35 -63 61 -67 56 -4 -4 8 -23 26
-42 19 -19 29 -35 22 -35 -25 0 -10 -19 38 -50 51 -32 71 -60 84 -112 5 -21 0
-33 -19 -52 -26 -26 -32 -26 -90 -1 -49 21 -75 27 -75 17 0 -5 10 -14 23 -21
21 -11 20 -11 -8 -7 -97 14 -155 18 -155 9 0 -6 58 -18 130 -28 72 -10 130
-22 130 -26 0 -5 -8 -23 -18 -41 -10 -18 -34 -71 -52 -116 l-33 -84 -41 6
c-120 16 -156 18 -156 8 0 -10 25 -15 135 -28 68 -7 59 -14 -47 -34 -38 -7
-68 -17 -68 -22 0 -7 14 -8 38 -4 20 4 57 9 82 12 l46 6 12 -148 c15 -194 35
-319 73 -479 30 -126 31 -136 27 -305 -4 -169 -6 -179 -40 -280 -46 -136 -100
-249 -135 -282 -48 -46 -138 -86 -245 -109 -57 -12 -164 -39 -238 -59 -149
-42 -229 -60 -264 -60 -22 0 -24 5 -30 73 -9 90 -15 117 -28 117 -6 0 -8 -14
-5 -32 3 -18 9 -63 13 -100 l6 -67 -41 -11 c-23 -6 -45 -9 -50 -6 -4 3 -20 39
-36 81 -15 41 -31 75 -36 75 -13 0 -12 -8 19 -91 l29 -76 -221 -73 c-275 -90
-275 -90 -295 -90 -20 0 -41 69 -41 134 0 42 1 44 37 50 21 3 107 39 191 81
84 41 156 75 161 75 4 0 27 13 49 30 23 17 55 30 70 30 16 0 55 9 88 20 48 17
73 19 144 14 79 -6 92 -4 196 30 60 20 166 44 235 54 71 11 136 26 150 35 40
26 89 93 106 143 22 64 12 334 -17 499 -12 66 -32 199 -45 295 -18 139 -32
199 -63 290 -46 130 -49 184 -19 335 9 44 16 103 17 131 0 66 9 93 83 242 66
134 92 164 187 209 49 23 62 25 135 20 69 -5 90 -11 145 -42 102 -59 196 -103
326 -155 l120 -49 90 23 c99 25 127 38 227 103 38 25 92 57 120 71 29 14 68
40 88 58 20 17 70 54 110 82 93 63 216 190 344 358 97 128 174 198 264 242 14
7 18 10 8 7 -10 -3 -22 -5 -26 -5 -3 0 -39 -24 -78 -52 -57 -41 -98 -86 -189
-203 -144 -187 -213 -258 -334 -344 -52 -38 -104 -78 -114 -90 -11 -11 -24
-21 -30 -21 -6 0 -49 -23 -96 -51 -47 -28 -112 -67 -144 -87 -38 -22 -94 -43
-152 -57 l-91 -22 -114 47 c-130 53 -208 90 -329 154 -78 42 -91 46 -158 46
-57 0 -85 -5 -125 -25 -96 -45 -129 -83 -202 -229 -65 -131 -67 -138 -76 -243
-6 -59 -17 -133 -25 -164 -25 -98 -19 -164 26 -289 30 -84 45 -147 60 -258 10
-81 31 -219 45 -307 33 -214 43 -453 21 -515 -21 -57 -61 -114 -94 -136 -15
-10 -78 -25 -152 -35 -69 -10 -177 -35 -240 -55 -106 -33 -120 -36 -195 -29
-68 5 -91 3 -143 -14 -34 -12 -73 -21 -88 -21 -15 0 -42 -11 -60 -25 -18 -14
-35 -25 -37 -25 -3 0 -86 -38 -185 -85 -99 -47 -189 -85 -201 -85 l-21 0 0
2525 0 2525 1773 -1 1772 0 51 -62z m659 -22 c105 -89 216 -157 288 -175 83
-22 234 -126 283 -196 35 -50 75 -158 134 -363 36 -126 40 -150 40 -253 0 -62
-7 -144 -15 -182 -23 -111 -89 -250 -192 -406 l-96 -145 -9 -95 c-4 -52 -15
-113 -24 -135 -17 -42 -72 -118 -131 -181 -65 -69 -84 -107 -99 -201 -8 -48
-27 -117 -41 -153 -40 -98 -267 -433 -328 -483 -254 -209 -316 -278 -442 -491
-68 -115 -115 -179 -186 -255 -23 -25 -54 -60 -68 -78 -31 -38 -93 -200 -119
-311 -10 -43 -34 -113 -53 -157 -48 -114 -53 -152 -23 -217 17 -38 37 -63 72
-89 117 -85 184 -128 254 -161 95 -45 311 -104 415 -113 174 -15 531 -100 609
-145 58 -33 156 -131 174 -172 11 -28 11 -28 -26 -27 -33 0 -42 7 -85 60 -50
62 -92 89 -187 119 -52 17 -88 26 -235 60 -22 5 -114 21 -205 35 -91 14 -196
34 -235 44 -38 11 -95 26 -126 35 -185 50 -436 224 -486 335 -30 69 -25 122
22 261 18 52 50 163 70 245 40 158 57 202 110 275 17 25 48 74 67 110 53 98
205 359 225 385 5 6 15 23 23 40 8 16 60 77 115 135 56 58 123 137 150 175 27
39 50 72 52 74 2 3 13 -5 26 -17 22 -21 47 -29 47 -16 0 3 -13 19 -30 34 l-30
28 26 72 c32 93 102 226 127 242 6 3 28 -2 48 -13 41 -21 59 -24 59 -11 0 5
-18 17 -40 27 -51 23 -52 25 -39 65 13 36 16 36 119 7 33 -9 59 -12 64 -7 11
11 1 15 -65 29 -26 6 -57 15 -71 20 l-24 9 13 84 c7 45 20 148 29 228 20 182
21 190 38 190 8 0 16 5 18 11 4 13 89 -19 165 -62 29 -16 57 -29 63 -29 19 0
10 21 -12 31 -19 8 -17 8 12 3 157 -27 141 -7 -25 31 -66 16 -136 35 -156 44
l-36 16 56 100 c50 89 166 272 182 285 3 3 18 29 34 58 15 28 32 52 37 52 4 0
25 -9 45 -20 41 -22 68 -26 58 -10 -4 6 -25 20 -48 31 -23 12 -43 23 -45 24
-5 5 41 115 49 115 5 0 24 -8 44 -17 25 -12 38 -14 46 -6 8 8 -4 17 -43 31
-73 28 -44 37 57 17 43 -8 81 -12 84 -10 11 12 -18 23 -89 34 -41 7 -78 15
-81 19 -3 4 -1 35 4 69 10 72 0 66 150 84 59 7 107 17 107 22 0 9 -31 8 -187
-9 l-61 -7 -7 49 c-15 118 -36 242 -44 272 l-10 33 75 37 c41 20 74 42 74 49
0 15 -16 9 -87 -29 -81 -44 -83 -33 -8 42 38 38 66 73 62 77 -4 4 -38 -23 -75
-60 l-68 -68 -43 46 c-42 45 -43 47 -30 78 7 18 21 47 31 65 20 36 23 52 9 52
-5 0 -23 -29 -40 -65 -31 -68 -40 -75 -65 -50 -8 8 -17 15 -21 15 -4 0 -25 13
-48 28 -23 15 -77 46 -121 67 -57 30 -91 55 -129 98 -28 32 -81 80 -118 108
-58 43 -118 104 -143 147 -6 9 25 12 141 12 l148 -1 100 -84z m2845 -2550 l0
-2635 -1190 0 -1190 0 -14 33 c-22 52 -125 149 -196 185 -94 47 -425 124 -593
138 -109 9 -328 69 -421 116 -88 44 -205 120 -261 169 -78 69 -86 150 -27 284
16 39 42 113 55 165 14 52 42 137 62 189 30 81 46 106 108 175 107 119 138
160 202 271 105 182 171 260 337 402 153 130 153 131 274 309 138 203 177 286
198 415 16 96 26 117 91 189 126 139 152 189 164 323 11 109 7 101 113 260 87
129 156 273 182 378 10 43 16 108 16 190 0 109 -4 140 -30 235 -93 332 -131
405 -258 497 -87 62 -149 97 -172 97 -9 0 -54 18 -100 41 -72 35 -140 85 -274
201 -6 4 650 8 1457 8 l1467 0 0 -2635z m-2900 680 c0 -115 -55 -458 -83 -515
-33 -68 -86 -150 -98 -150 -5 0 -27 9 -49 20 -44 22 -50 24 -50 11 0 -4 20
-19 45 -32 75 -40 57 -48 -53 -25 -34 8 -65 10 -67 5 -8 -11 2 -15 78 -30 40
-7 67 -18 67 -25 0 -31 -64 -175 -106 -238 -66 -99 -222 -258 -246 -250 -20 6
-24 -6 -8 -22 7 -7 5 -18 -8 -35 -10 -13 -58 -90 -106 -172 -64 -108 -93 -147
-107 -147 -21 0 -26 -16 -7 -22 13 -5 -37 -102 -102 -199 -60 -89 -75 -125
-114 -281 -21 -82 -52 -192 -70 -245 -18 -54 -36 -119 -40 -145 -4 -25 -14
-52 -21 -58 -20 -17 -19 -30 4 -30 13 0 22 -12 31 -46 17 -60 84 -122 245
-230 118 -79 337 -158 510 -185 28 -4 84 -13 125 -19 154 -24 177 -28 265 -48
200 -47 261 -74 327 -146 l48 -51 -41 -3 c-36 -3 -45 1 -68 27 -49 56 -245
114 -546 161 -184 29 -407 88 -522 138 -61 26 -131 69 -205 125 -154 116 -170
132 -202 212 -33 83 -33 87 30 322 25 92 51 211 59 263 16 115 33 164 84 245
22 35 47 89 56 121 34 119 48 151 118 269 40 66 83 145 97 175 13 30 33 69 44
85 15 23 16 27 4 17 -10 -8 -35 -50 -56 -95 -22 -45 -71 -135 -111 -200 -50
-82 -76 -138 -87 -185 -9 -37 -29 -92 -44 -122 -15 -30 -45 -88 -65 -128 -29
-57 -40 -95 -50 -170 -8 -53 -30 -158 -49 -232 -20 -74 -44 -169 -53 -211
l-16 -75 27 -77 c24 -65 36 -83 84 -124 107 -94 251 -190 339 -228 120 -52
335 -108 533 -139 292 -47 494 -105 525 -152 l15 -24 -1816 0 c-1000 0 -1815
2 -1813 4 2 2 121 38 265 79 294 86 377 123 460 209 67 69 78 90 118 230 26
87 44 129 69 160 21 27 40 67 51 108 23 90 46 287 46 397 0 80 -5 105 -34 186
-50 139 -70 237 -69 353 0 94 2 104 31 156 17 30 39 61 49 69 26 23 93 39 154
38 41 0 99 15 244 64 238 81 255 89 343 161 39 33 92 67 116 76 59 23 177 119
226 184 21 30 54 64 72 77 18 12 95 74 170 137 105 87 158 140 227 226 117
148 149 168 286 177 85 6 105 4 136 -12 67 -33 60 -109 -22 -246 -72 -119 -80
-144 -95 -287 -17 -160 -37 -206 -130 -298 -37 -38 -63 -68 -58 -68 17 0 148
153 167 194 11 24 24 93 32 171 14 143 22 167 96 289 59 99 71 137 63 192 -5
35 -12 45 -45 63 -36 21 -48 22 -139 16 -140 -10 -187 -40 -305 -192 -75 -97
-111 -132 -260 -252 -98 -80 -188 -161 -209 -190 -44 -60 -165 -155 -224 -175
-24 -9 -71 -40 -105 -70 -81 -70 -109 -84 -339 -162 -157 -53 -204 -65 -253
-65 -109 2 -165 -31 -213 -124 -22 -44 -26 -62 -26 -155 -1 -116 13 -184 69
-349 41 -123 44 -187 20 -389 -20 -163 -45 -252 -86 -303 -22 -29 -43 -77 -69
-163 -41 -138 -61 -176 -123 -233 -73 -67 -184 -115 -422 -183 -121 -35 -244
-71 -274 -81 -49 -17 -89 -19 -460 -18 -368 1 -401 2 -349 15 32 7 164 49 295
93 142 47 278 86 338 96 100 16 179 36 310 75 39 11 113 30 165 41 52 10 102
22 111 24 12 4 21 -6 33 -35 9 -22 20 -40 26 -40 13 0 13 4 -5 47 -8 20 -14
37 -13 38 2 2 22 12 46 24 37 19 43 20 48 6 3 -8 12 -15 20 -15 16 0 19 16 4
25 -15 9 1 35 22 35 11 0 31 -9 45 -20 39 -31 42 -13 4 21 -36 31 -32 35 18
18 45 -16 52 -2 8 16 -42 17 -45 28 -18 71 10 17 36 77 57 135 20 57 41 108
46 113 5 6 25 2 53 -12 33 -16 45 -18 45 -8 0 7 -18 21 -40 31 -39 17 -60 51
-46 73 3 5 6 86 7 180 2 191 -5 175 82 187 74 10 57 26 -22 19 l-68 -7 -26
109 c-39 171 -46 209 -62 373 -19 198 -19 230 4 294 36 102 82 206 103 229 11
12 28 33 38 45 17 22 20 22 121 13 164 -16 173 -19 181 -65 4 -22 7 -63 7 -92
1 -28 6 -55 12 -59 8 -5 10 20 7 89 l-4 95 151 4 c103 3 163 10 192 21 l42 16
27 -36 c31 -40 46 -30 18 12 -22 34 -18 38 109 103 l97 51 20 -40 c11 -21 25
-39 30 -39 14 0 12 11 -10 53 l-20 37 47 34 c26 19 53 32 60 29 7 -3 13 2 13
10 0 19 64 76 195 174 105 78 229 193 274 253 75 100 144 180 186 215 52 42
149 95 175 95 10 0 67 11 128 25 67 15 167 28 254 33 79 5 151 10 161 11 12 1
17 -6 17 -24z"/>
</g>
</svg>
